<svg xmlns="http://www.w3.org/2000/svg">

<symbol id="slider__button-toggle" width="40" height="40" viewBox="0 0 40 40" fill="none">
  <rect x="1" y="1" width="38" height="38" rx="19" fill="white"/>
  <path d="M16 11L8 20L16 29V11Z" fill="currentColor"/>
  <path d="M32 20L24 11V29L32 20Z" fill="currentColor"/>
  <rect x="1" y="1" width="38" height="38" rx="19" stroke="currentColor" stroke-width="2"/>
</symbol>

<symbol id="logo__text" width="101" height="18" viewBox="0 0 101 18" fill="none">
<g clip-path="url(#clip0_94552_1162)">
<path d="M1.26449 16.5385C0.36955 15.2762 -0.0747041 13.7627 1.02073e-05 12.2308V5.84615C-0.108365 4.29774 0.308071 2.75746 1.18546 1.46154C2.05478 0.461538 3.39829 0 5.37403 0C7.34978 0 8.61425 0.461538 9.40455 1.30769C10.2626 2.37941 10.6846 3.72136 10.59 5.07692V6.61539H6.71754V4.84615C6.74881 4.32289 6.66808 3.799 6.48045 3.30769C6.38016 3.10938 6.2212 2.9448 6.02403 2.83513C5.82686 2.72547 5.60049 2.67572 5.37403 2.69231C4.82082 2.69231 4.42568 2.84615 4.26762 3.23077C4.08883 3.77733 4.00862 4.34988 4.03053 4.92308V13.1538C3.98879 13.71 4.0978 14.267 4.34665 14.7692C4.5047 15.1538 4.89985 15.3077 5.45306 15.3077C6.00627 15.3077 6.32239 15.1538 6.48045 14.7692C6.66013 14.2494 6.74049 13.7019 6.71754 13.1538V11.3077H10.59V12.8462C10.6704 14.2238 10.2508 15.5852 9.40455 16.6923C8.61425 17.6154 7.27075 18.0769 5.37403 18.0769C3.47732 18 2.05478 17.5385 1.26449 16.5385Z" fill="#111111"/>
<path d="M15.2527 0.231068H19.7574L23.0767 17.7695H19.4413L18.8091 14.0772H16.2011L15.5689 17.7695H11.8545L15.2527 0.231068ZM18.493 11.7695L17.5446 4.92338L16.5963 11.7695H18.493Z" fill="#111111"/>
<path d="M25.8427 3.15414H23.1557V0.231068H32.5602V3.07722H29.8732V17.7695H25.8427V3.15414Z" fill="#111111"/>
<path d="M39.752 0.231068H46.7066V2.07722H42.2019V7.84645H45.8372V9.61568H42.2019V16.0772H46.7066V17.8465H39.6729V0.231068H39.752Z" fill="#111111"/>
<path d="M48.7613 0.231068H50.5L55.6369 11.8465V0.231068H57.6917V17.7695H56.1111L50.8951 5.76953V17.7695H48.7613V0.231068Z" fill="#111111"/>
<path d="M60.0626 0.231068H67.0172V2.07722H62.5125V7.84645H66.1479V9.61568H62.5125V16.0772H67.0172V17.8465H60.0626V0.231068Z" fill="#111111"/>
<path d="M69.072 0.231049H72.7074C74.1375 0.134897 75.5587 0.514632 76.7379 1.30797C77.6072 2.00028 78.0024 3.23105 78.0024 4.84643C78.0024 7.0772 77.2911 8.46182 75.7895 8.92336L78.3185 17.6926H75.8686L73.4977 9.46182H71.5219V17.6926H68.993V0.231049H69.072ZM72.5493 7.76951C73.364 7.83486 74.1761 7.6168 74.8412 7.15413C75.3154 6.76951 75.5524 6.00028 75.5524 4.84643C75.5743 4.27324 75.4941 3.70068 75.3154 3.15413C75.1375 2.76194 74.832 2.43758 74.446 2.23105C73.9017 1.98962 73.3042 1.88388 72.7074 1.92336H71.601V7.69259H72.5493V7.76951Z" fill="#111111"/>
<path d="M81.1635 16.461C80.342 15.1161 79.9564 13.5612 80.0571 11.9995V6.15335C80.0376 5.03861 80.1705 3.9263 80.4523 2.84565C80.7167 2.03813 81.2437 1.33618 81.9538 0.845654C82.8362 0.337251 83.8542 0.0962316 84.8779 0.153347C86.5376 0.153347 87.723 0.537962 88.4343 1.38412C89.2525 2.50141 89.6438 3.86188 89.5407 5.23027V5.84565H87.1698V5.30719C87.1734 4.66296 87.1205 4.0196 87.0117 3.38412C86.9451 2.98253 86.7178 2.62298 86.3795 2.38412C85.9353 2.10032 85.4081 1.96529 84.8779 1.9995C84.3113 1.96416 83.7504 2.12793 83.2973 2.46104C83.1114 2.61351 82.9595 2.80132 82.8508 3.01295C82.7421 3.22458 82.6789 3.45558 82.6651 3.69181C82.5609 4.37949 82.5081 5.07362 82.507 5.76873V12.3072C82.4488 13.3033 82.6105 14.3001 82.9812 15.2303C83.2973 15.8457 83.9296 16.0764 84.8779 16.0764C85.2524 16.1218 85.6323 16.0584 85.9698 15.8942C86.3073 15.7299 86.5873 15.4722 86.7746 15.1533C87.1922 14.1806 87.3812 13.1294 87.3278 12.0764V10.8457H85.036V9.07642H89.6197V17.7687H88.0391L87.802 15.7687C87.5948 16.439 87.1634 17.0226 86.5763 17.4268C85.9892 17.831 85.2801 18.0326 84.5618 17.9995C83.9088 18.0369 83.2565 17.9159 82.6634 17.6474C82.0702 17.3789 81.5549 16.9712 81.1635 16.461Z" fill="#111111"/>
<path d="M94.6776 11.6154L90.8052 0.30769H93.1761L95.9421 8.76923L98.6291 0.30769H101L97.1275 11.6154V17.7692H94.7566V11.6154H94.6776Z" fill="#111111"/>
</g>
<defs>
<clipPath id="clip0_94552_1162">
<rect width="101" height="18" fill="white"/>
</clipPath>
</defs>
</symbol>

<symbol id="main-footer__logo" width="128" height="24" viewBox="0 0 128 24">
  <path d="M1.6236 21.9574C0.489608 20.2815 -0.0733133 18.2722 0.0213584 16.2383V7.7617C-0.115966 5.70593 0.411707 3.66097 1.52346 1.94043C2.62499 0.612766 4.32737 0 6.83086 0C9.33436 0 10.9366 0.612766 11.938 1.73617C13.0252 3.15904 13.56 4.9407 13.4401 6.74043V8.78298H8.53324V6.43404C8.57287 5.73932 8.47057 5.04378 8.23282 4.39149C8.10574 4.12819 7.90433 3.90969 7.65449 3.76409C7.40465 3.61849 7.11781 3.55245 6.83086 3.57447C6.12989 3.57447 5.62919 3.77872 5.42891 4.28936C5.20237 5.015 5.10073 5.77516 5.12849 6.53617V17.4638C5.0756 18.2022 5.21373 18.9417 5.52905 19.6085C5.72933 20.1192 6.23003 20.3234 6.931 20.3234C7.63198 20.3234 8.03254 20.1192 8.23282 19.6085C8.4605 18.9183 8.56232 18.1914 8.53324 17.4638V15.0128H13.4401V17.0553C13.5419 18.8844 13.0103 20.6918 11.938 22.1617C10.9366 23.3872 9.23422 24 6.83086 24C4.42751 23.8979 2.62499 23.2851 1.6236 21.9574Z"/>
  <path d="M19.3483 0.306396H25.0563L29.2622 23.5915H24.6557L23.8546 18.6894H20.55L19.7489 23.5915H15.0423L19.3483 0.306396ZM23.454 15.6255L22.2524 6.53618L21.0507 15.6255H23.454Z"/>
  <path d="M32.767 4.18725H29.3623V0.306396H41.2789V4.08512H37.8742V23.5915H32.767V4.18725Z"/>
  <path d="M50.3916 0.306396H59.2039V2.75746H53.496V10.417H58.1024V12.766H53.496V21.3447H59.2039V23.6936H50.2915V0.306396H50.3916Z"/>
  <path d="M61.8076 0.306396H64.0107L70.5198 15.7277V0.306396H73.1234V23.5915H71.1206L64.5114 7.65959V23.5915H61.8076V0.306396Z"/>
  <path d="M76.1276 0.306396H84.9399V2.75746H79.2319V10.417H83.8383V12.766H79.2319V21.3447H84.9399V23.6936H76.1276V0.306396Z"/>
  <path d="M87.5435 0.306296H92.1499C93.962 0.178639 95.7629 0.682798 97.2571 1.73608C98.3586 2.65523 98.8593 4.28927 98.8593 6.43396C98.8593 9.39566 97.958 11.234 96.0554 11.8467L99.2599 23.4893H96.1555L93.1513 12.5616H90.6478V23.4893H87.4434V0.306296H87.5435ZM91.9497 10.3148C92.982 10.4016 94.011 10.1121 94.8537 9.49778C95.4546 8.98715 95.755 7.96587 95.755 6.43396C95.7827 5.67295 95.6811 4.91279 95.4546 4.18715C95.2292 3.66645 94.8421 3.23582 94.353 2.96162C93.6633 2.64108 92.9062 2.50069 92.1499 2.5531H90.748V10.2127H91.9497V10.3148Z"/>
  <path d="M102.865 21.8554C101.824 20.0697 101.335 18.0053 101.463 15.932V8.17025C101.438 6.69026 101.607 5.21349 101.964 3.77876C102.299 2.70664 102.967 1.77469 103.866 1.12344C104.984 0.448453 106.274 0.128462 107.571 0.204291C109.674 0.204291 111.177 0.714929 112.078 1.83833C113.115 3.32172 113.61 5.12795 113.48 6.94472V7.76174H110.476V7.04684C110.48 6.19152 110.413 5.33736 110.275 4.49365C110.191 3.96049 109.903 3.48313 109.474 3.16599C108.911 2.78921 108.243 2.60993 107.571 2.65535C106.853 2.60843 106.143 2.82587 105.569 3.26812C105.333 3.47055 105.141 3.71989 105.003 4.00086C104.865 4.28184 104.785 4.58853 104.768 4.90216C104.636 5.81517 104.569 6.73673 104.567 7.65961V16.3405C104.493 17.663 104.698 18.9863 105.168 20.2213C105.569 21.0383 106.37 21.3447 107.571 21.3447C108.046 21.405 108.527 21.3208 108.955 21.1028C109.383 20.8847 109.737 20.5425 109.975 20.1192C110.504 18.8277 110.743 17.432 110.676 16.0341V14.4H107.772V12.0511H113.58V23.5915H111.577L111.277 20.9362C111.014 21.8261 110.467 22.601 109.724 23.1376C108.98 23.6742 108.081 23.9419 107.171 23.8979C106.343 23.9475 105.517 23.7869 104.765 23.4304C104.014 23.0739 103.361 22.5327 102.865 21.8554Z"/>
  <path d="M119.989 15.4212L115.082 0.408447H118.086L121.591 11.6425L124.996 0.408447H128L123.093 15.4212V23.5914H120.089V15.4212H119.989Z"/>
</symbol>

<symbol id="phone-icon" width="21" height="20" viewBox="0 0 21 20" fill="none" xmlns="http://www.w3.org/2000/svg">
<g id="phone-stroke 1">
<path id="Vector" d="M10.0022 10H18.5041M18.5041 10L16.0036 7.5M18.5041 10L16.0036 12.5M8.50191 2.5V7.5H5.50124V12.5H8.50191V17.5H6.00135C4.50102 17.5 3.50079 16.5 3.50079 15V5C3.50079 3.5 4.50102 2.5 6.00135 2.5H8.50191Z" stroke="currentColor" stroke-linecap="round" stroke-linejoin="round"/>
</g>
</symbol>

<symbol id="gift__icon" width="78" height="81" viewBox="0 0 78 81" fill="none">
<path d="M64.0156 35.6325H14.031C12.2766 35.6325 10.8494 34.2144 10.8494 32.4709V22.9989C10.8494 21.2554 12.2766 19.8367 14.031 19.8367H64.0149C65.7687 19.8367 67.1953 21.2554 67.1953 22.9989V32.4715C67.1959 34.2144 65.7693 35.6325 64.0156 35.6325ZM14.031 22.2598C13.6276 22.2598 13.2869 22.5984 13.2869 22.9989V32.4715C13.2869 32.8786 13.6208 33.21 14.031 33.21H64.0149C64.4244 33.21 64.7578 32.8786 64.7578 32.4715V22.9989C64.7578 22.5978 64.4171 22.2598 64.0149 22.2598H14.031Z" fill="white"/>  <path d="M57.0447 68.0821H20.999C17.6218 68.0821 14.8741 65.3512 14.8741 61.9933V34.421C14.8741 33.7523 15.4201 33.2095 16.0929 33.2095C16.7656 33.2095 17.3116 33.7523 17.3116 34.421V61.9933C17.3116 64.0148 18.9661 65.6589 20.999 65.6589H57.0447C59.077 65.6589 60.7308 64.0148 60.7308 61.9933V34.421C60.7308 33.7523 61.2768 33.2095 61.9496 33.2095C62.6223 33.2095 63.1683 33.7523 63.1683 34.421V61.9933C63.1683 65.3512 60.4213 68.0821 57.0447 68.0821Z" fill="white"/>
<path d="M39.0225 68.0821C38.3498 68.0821 37.8038 67.5399 37.8038 66.8705V34.421C37.8038 33.7523 38.3498 33.2095 39.0225 33.2095C39.6953 33.2095 40.2413 33.7523 40.2413 34.421V66.8699C40.2413 67.5399 39.6959 68.0821 39.0225 68.0821Z" fill="white"/>
<path d="M23.8113 22.2556C19.9966 20.2008 18.5731 15.4442 20.6383 11.6513C22.7022 7.86033 27.4864 6.44461 31.303 8.4958C37.117 11.6265 40.2565 20.3607 40.3869 20.7308L38.0877 21.5347C38.0585 21.4523 35.1256 13.31 30.1433 10.627C27.5078 9.21063 24.2062 10.1884 22.7821 12.8047C21.3567 15.4236 22.339 18.7069 24.9734 20.1251L23.8113 22.2556Z" fill="white"/>
<path d="M54.2313 22.2556L53.071 20.1244C54.3477 19.4369 55.2782 18.2974 55.6926 16.9156C56.1063 15.5332 55.9534 14.0732 55.2617 12.8053C54.5719 11.5362 53.4263 10.6118 52.0363 10.2005C50.6457 9.78913 49.1783 9.94058 47.9023 10.6269C42.9201 13.3093 39.9871 21.4517 39.9579 21.5341L37.6587 20.7302C37.7891 20.3601 40.928 11.6259 46.7421 8.49578C48.5897 7.50109 50.7182 7.28179 52.7316 7.87788C54.7468 8.47337 56.4061 9.81397 57.4061 11.6513C58.4073 13.4881 58.6285 15.6029 58.0289 17.6062C57.4287 19.6089 56.0801 21.2597 54.2313 22.2556Z" fill="white"/>
<path d="M61.9496 51.8567H16.0929C15.4201 51.8567 14.8741 51.3142 14.8741 50.6456C14.8741 49.9771 15.4201 49.4346 16.0929 49.4346H61.9496C62.6223 49.4346 63.1683 49.9771 63.1683 50.6456C63.1683 51.3142 62.6229 51.8567 61.9496 51.8567Z" fill="white"/>
</symbol>

<symbol id="mail-icon" width="18" height="14" viewBox="0 0 18 14"><path d="M.5 5.5v8h17v-8M.5.5h17v2L9 8.5l-8.5-6v-2Z"/>
</symbol>

<symbol id="developer__image" width="27" height="34" viewBox="0 0 27 34">
  <g clip-path="url(#clip0_83854_420)">
    <path d="M13.6426 0.0157537L13.5 0L0 1.40733V26.0129L13.5 34L27 26.0129V1.40733L13.6426 0.0157537ZM25.2344 25.0151L13.5 31.9573L1.76561 25.0151V14.9293L13.4507 21.8451L13.4701 23.0984L5.45351 18.3548L5.44295 19.5801L13.4894 24.3885L13.5088 25.675L5.46408 20.9174L5.45351 22.1427L13.5 26.9511L21.6239 22.1182V20.8929V16.909L25.2432 14.7595L25.2344 25.0151ZM25.2344 13.4519L22.0147 15.3319L20.5325 16.2071L13.4666 12.0201L13.456 13.2454L19.4957 16.818L19.4429 16.8495L19.3126 16.9247L18.4536 17.4166L13.4666 14.4689L13.456 15.6942L17.3921 18.0222L16.4591 18.6314L16.438 18.6436L13.4666 16.902L13.456 18.1273L15.4029 19.2615L13.4155 20.4483L1.7973 13.5762L13.4349 6.61831L25.2344 13.4519ZM25.2344 12.2266L13.4401 5.31075L1.76561 12.2196V2.9897L13.5 1.76442L25.2344 2.9897V12.2266Z"/>
  </g>
  <defs>
    <clipPath id="clip0_83854_420">
      <rect width="27" height="34"/>
    </clipPath>
  </defs>
</symbol>

</svg>
