<svg width="101" height="19" fill="none" xmlns="http://www.w3.org/2000/svg"><path d="M1.218 16.482a6.795 6.795 0 0 1-1.2-4.337V5.878A6.9 6.9 0 0 1 1.2 1.499C1.996.502 3.354.006 5.275.012c1.921.005 3.222.442 3.902 1.312a5.514 5.514 0 0 1 1.14 3.752v1.47h-3.55V4.95a8.148 8.148 0 0 0-.111-1.253 1.39 1.39 0 0 0-.403-.794 1.348 1.348 0 0 0-.987-.31 1.281 1.281 0 0 0-.744.116c-.23.112-.42.29-.542.511a4.465 4.465 0 0 0-.292 1.839v7.955c-.039.63.076 1.26.335 1.839.124.208.307.377.528.486.221.108.47.151.715.124.242.033.488-.009.704-.12.215-.11.39-.285.497-.499.208-.587.298-1.209.266-1.83v-1.671h3.55v1.446A5.942 5.942 0 0 1 9.23 16.64c-.755.92-2.059 1.37-3.911 1.37-1.853 0-3.302-.5-4.1-1.529ZM15.156.254h4.065l3.43 17.549h-3.379l-.609-3.878h-2.847l-.686 3.852H11.7L15.155.255Zm3.13 11.465-1.08-7.053-1.073 7.053h2.153ZM25.285 2.895h-2.779V.254H31.7v2.64h-2.745v14.883h-3.679l.009-14.882Z" fill="#111"/><path d="M38.913.254h6.973v1.822h-4.46v5.79h3.62v1.73h-3.62v6.427h4.503v1.755h-7.016V.253ZM47.953.254h1.715l5.146 11.64V.255h2.093v17.549h-1.604L50.157 5.836v11.941h-2.126L47.953.255ZM59.678.254h6.964v1.822h-4.46v5.79h3.653v1.73h-3.619v6.427h4.477v1.755h-7.015V.253ZM68.709.254h3.62a6.12 6.12 0 0 1 4.004 1.095c.858.727 1.278 1.913 1.278 3.56 0 2.228-.74 3.59-2.221 4.086l2.573 8.783h-2.436L73.17 9.554h-1.947v8.223h-2.513V.253Zm3.43 7.52a3.382 3.382 0 0 0 2.316-.634c.27-.311.471-.672.592-1.062s.159-.799.111-1.203a4.773 4.773 0 0 0-.248-1.671 1.57 1.57 0 0 0-.335-.536 1.62 1.62 0 0 0-.523-.367 4.179 4.179 0 0 0-1.758-.292h-1.106v5.8l.951-.034ZM80.99 16.482a7.572 7.572 0 0 1-1.088-4.47v-5.85c-.03-1.129.115-2.256.428-3.343A3.75 3.75 0 0 1 81.823.805a5.174 5.174 0 0 1 2.881-.701 4.622 4.622 0 0 1 1.933.232A4.53 4.53 0 0 1 88.29 1.34a5.74 5.74 0 0 1 1.098 3.87v.651H87.03v-.543c.016-.65-.036-1.3-.155-1.939a1.666 1.666 0 0 0-.651-1.028 2.627 2.627 0 0 0-1.476-.342 2.2 2.2 0 0 0-1.552.468 2.122 2.122 0 0 0-.66 1.237 12.062 12.062 0 0 0-.146 2.08v6.51c-.068.99.105 1.98.506 2.891.233.28.528.505.863.657a2.482 2.482 0 0 0 2.135-.042c.329-.165.614-.4.835-.69a6.622 6.622 0 0 0 .524-3.05v-1.237H84.97v-1.73h4.546v8.675h-1.553l-.248-2.014a3.086 3.086 0 0 1-1.2 1.658 3.224 3.224 0 0 1-2 .573 4.09 4.09 0 0 1-1.961-.315 3.983 3.983 0 0 1-1.563-1.198ZM94.73 11.594 90.847.254h2.332l2.753 8.457 2.71-8.457H101l-3.86 11.34v6.184h-2.4l-.01-6.184Z" fill="#444"/></svg>