<svg xmlns="http://www.w3.org/2000/svg" xmlns:xlink="http://www.w3.org/1999/xlink"><defs><clipPath id="a"><path d="M0 0h27v34H0z"/></clipPath><clipPath id="a"><path fill="#fff" d="M0 0h101v18H0z"/></clipPath></defs><symbol id="developer__image"><g clip-path="url(#a)"><path d="M13.643.016 13.5 0 0 1.407v24.606L13.5 34 27 26.013V1.407L13.643.016Zm11.591 25L13.5 31.956 1.766 25.015V14.93l11.685 6.916.02 1.253-8.017-4.743-.011 1.225 8.046 4.809.02 1.286-8.045-4.758-.01 1.226L13.5 26.95l8.124-4.833V16.91l3.62-2.15-.01 10.256Zm0-11.564-3.22 1.88-1.482.875-7.065-4.187-.011 1.225 6.04 3.573-.053.031-.13.076-.86.492-4.986-2.948-.011 1.225 3.936 2.328-.933.61-.021.012-2.971-1.742-.011 1.225 1.947 1.135-1.988 1.186-11.618-6.872 11.638-6.958 11.8 6.834Zm0-1.225L13.44 5.31 1.766 12.22V2.99L13.5 1.764 25.234 2.99v9.237Z"/></g></symbol><symbol id="logo__text"><g fill="none"><g clip-path="url(#a)" fill="#111"><path d="M1.264 16.538A6.865 6.865 0 0 1 0 12.231V5.846a6.95 6.95 0 0 1 1.185-4.384C2.055.462 3.398 0 5.374 0s3.24.462 4.03 1.308a5.422 5.422 0 0 1 1.186 3.769v1.538H6.718V4.846a3.693 3.693 0 0 0-.238-1.538 1.12 1.12 0 0 0-.456-.473 1.163 1.163 0 0 0-.65-.143c-.553 0-.948.154-1.106.539a4.846 4.846 0 0 0-.237 1.692v8.23a3.111 3.111 0 0 0 .316 1.616c.158.385.553.539 1.106.539s.87-.154 1.027-.539c.18-.52.26-1.067.238-1.615v-1.846h3.872v1.538a5.775 5.775 0 0 1-1.185 3.846c-.79.923-2.134 1.385-4.031 1.385-1.897-.077-3.32-.539-4.11-1.539ZM15.253.23h4.504l3.32 17.54H19.44l-.632-3.693h-2.608l-.632 3.692h-3.715L15.253.231Zm3.24 11.54-.948-6.847-.949 6.846h1.897ZM25.843 3.154h-2.687V.23h9.404v2.846h-2.687v14.692h-4.03V3.154ZM39.752.23h6.955v1.847h-4.505v5.77h3.635v1.768h-3.635v6.462h4.505v1.77h-7.034V.23h.079ZM48.761.23H50.5l5.137 11.616V.231h2.055v17.538h-1.58l-5.217-12v12h-2.134V.231ZM60.063.23h6.954v1.847h-4.504v5.77h3.635v1.768h-3.635v6.462h4.504v1.77h-6.954V.23ZM69.072.23h3.635a6.451 6.451 0 0 1 4.03 1.078c.87.692 1.265 1.923 1.265 3.538 0 2.23-.71 3.616-2.212 4.077l2.528 8.77h-2.45l-2.37-8.231h-1.976v8.23h-2.529V.231h.079Zm3.477 7.54a3.524 3.524 0 0 0 2.292-.616c.474-.385.711-1.154.711-2.308a4.848 4.848 0 0 0-.237-1.692 1.975 1.975 0 0 0-.869-.923 3.69 3.69 0 0 0-1.739-.308h-1.106v5.77h.948v.076ZM81.163 16.462A7.613 7.613 0 0 1 80.058 12V6.154c-.02-1.115.114-2.227.395-3.308a3.916 3.916 0 0 1 1.502-2c.882-.508 1.9-.75 2.924-.692 1.66 0 2.845.384 3.556 1.23a5.77 5.77 0 0 1 1.107 3.847v.615H87.17v-.538a11.03 11.03 0 0 0-.158-1.923 1.533 1.533 0 0 0-.633-1A2.493 2.493 0 0 0 84.878 2a2.417 2.417 0 0 0-1.58.462 1.703 1.703 0 0 0-.632 1.23 14.01 14.01 0 0 0-.159 2.077v6.539a6.818 6.818 0 0 0 .474 2.923c.316.615.949.846 1.897.846a1.96 1.96 0 0 0 1.092-.182c.337-.165.617-.422.805-.741a6.908 6.908 0 0 0 .553-3.077v-1.23h-2.292v-1.77h4.584v8.692h-1.58l-.238-2a3.143 3.143 0 0 1-1.226 1.658 3.288 3.288 0 0 1-2.014.573 4.045 4.045 0 0 1-1.899-.352 3.932 3.932 0 0 1-1.5-1.186ZM94.678 11.615 90.805.308h2.371l2.766 8.461L98.63.308H101l-3.873 11.307v6.154h-2.37v-6.154h-.08Z"/></g></g></symbol><symbol id="mail-icon"><path d="M.5 5.5v8h17v-8M.5.5h17v2L9 8.5l-8.5-6v-2Z"/></symbol><symbol id="main-footer__logo"><path d="M1.624 21.957A9.428 9.428 0 0 1 .02 16.238V7.762A9.559 9.559 0 0 1 1.523 1.94C2.625.613 4.327 0 6.831 0c2.503 0 4.106.613 5.107 1.736A7.433 7.433 0 0 1 13.44 6.74v2.043H8.533V6.434a5.116 5.116 0 0 0-.3-2.043 1.46 1.46 0 0 0-.579-.627 1.42 1.42 0 0 0-.823-.19c-.701 0-1.202.205-1.402.715a6.72 6.72 0 0 0-.3 2.247v10.928a4.3 4.3 0 0 0 .4 2.145c.2.51.701.714 1.402.714s1.102-.204 1.302-.715c.227-.69.33-1.417.3-2.144v-2.451h4.907v2.042a7.922 7.922 0 0 1-1.502 5.107C10.937 23.387 9.234 24 6.831 24c-2.403-.102-4.206-.715-5.207-2.043ZM19.348.306h5.708l4.206 23.285h-4.606l-.801-4.902H20.55l-.801 4.902h-4.707L19.348.306Zm4.106 15.32-1.202-9.09-1.201 9.09h2.403ZM32.767 4.187h-3.405V.307H41.28v3.778h-3.405v19.506h-5.107V4.188ZM50.392.306h8.812v2.451h-5.708v7.66h4.606v2.349h-4.606v8.579h5.708v2.349H50.29V.306h.1ZM61.808.306h2.203l6.509 15.422V.306h2.603v23.285h-2.002L64.51 7.66V23.59h-2.703V.306ZM76.128.306h8.812v2.451h-5.708v7.66h4.606v2.349h-4.606v8.579h5.708v2.349h-8.812V.306ZM87.543.306h4.607a7.896 7.896 0 0 1 5.107 1.43c1.102.92 1.602 2.553 1.602 4.698 0 2.962-.901 4.8-2.804 5.413l3.205 11.642h-3.105l-3.004-10.927h-2.503v10.927h-3.205V.306h.1Zm4.407 10.009a4.313 4.313 0 0 0 2.904-.817c.6-.51.901-1.532.901-3.064a6.722 6.722 0 0 0-.3-2.247 2.576 2.576 0 0 0-1.102-1.225 4.488 4.488 0 0 0-2.203-.409h-1.402v7.66h1.202v.102ZM102.865 21.855a10.485 10.485 0 0 1-1.402-5.923V8.17c-.025-1.48.144-2.957.501-4.391a5.186 5.186 0 0 1 1.902-2.656 6.438 6.438 0 0 1 3.705-.919c2.103 0 3.606.51 4.507 1.634a7.93 7.93 0 0 1 1.402 5.107v.817h-3.004v-.715c.004-.855-.063-1.71-.201-2.553a2.045 2.045 0 0 0-.801-1.328 3.05 3.05 0 0 0-1.903-.51 2.961 2.961 0 0 0-2.002.612 2.331 2.331 0 0 0-.801 1.634 19.568 19.568 0 0 0-.201 2.758v8.68a9.433 9.433 0 0 0 .601 3.881c.401.817 1.202 1.124 2.403 1.124.475.06.956-.024 1.384-.242.428-.218.782-.56 1.02-.984a9.572 9.572 0 0 0 .701-4.085V14.4h-2.904v-2.349h5.808v11.54h-2.003l-.3-2.655a4.172 4.172 0 0 1-1.553 2.202 4.03 4.03 0 0 1-2.553.76 4.924 4.924 0 0 1-2.406-.468 5.032 5.032 0 0 1-1.9-1.575ZM119.989 15.421 115.082.408h3.004l3.505 11.235L124.996.408H128l-4.907 15.013v8.17h-3.004v-8.17h-.1Z"/></symbol><symbol id="phone-icon"><g fill="none"><path d="M10.002 10h8.502m0 0-2.5-2.5m2.5 2.5-2.5 2.5m-7.502-10v5h-3v5h3v5h-2.5C4.5 17.5 3.5 16.5 3.5 15V5c0-1.5 1-2.5 2.5-2.5h2.5Z" stroke="currentColor" stroke-linecap="round" stroke-linejoin="round"/></g></symbol><symbol id="slider__button-toggle"><g fill="none"><rect x="1" y="1" width="38" height="38" rx="19" fill="#fff"/><path d="m16 11-8 9 8 9V11ZM32 20l-8-9v18l8-9Z" fill="currentColor"/><rect x="1" y="1" width="38" height="38" rx="19" stroke="currentColor" stroke-width="2"/></g></symbol><symbol id="sprite"/></svg>