<svg width="40" height="40" fill="none" xmlns="http://www.w3.org/2000/svg"><path fill="#E5E5E5" d="M0 0h40v40H0z"/><path d="M-122-312c0-5.523 4.477-10 10-10h3364c5.52 0 10 4.477 10 10v732c0 5.523-4.48 10-10 10H-112c-5.523 0-10-4.477-10-10v-732Z" fill="#fff"/><rect x="18" y="-109" width="4" height="257.02" rx="2" fill="#666"/><rect x="1" y="1" width="38" height="38" rx="19" fill="#fff"/><g fill="#666"><path d="m16 11-8 9 8 9V11ZM32 20l-8-9v18l8-9Z"/></g><rect x="1" y="1" width="38" height="38" rx="19" stroke="#666" stroke-width="2"/><rect x="-21.5" y="-128.5" width="267" height="296.02" rx="4.5" stroke="#9747FF" stroke-dasharray="10 5"/></svg>